<svg width="248" height="52" viewBox="0 0 248 52" fill="none" xmlns="http://www.w3.org/2000/svg">
<path fill-rule="evenodd" clip-rule="evenodd" d="M158.007 51.6991H147.606V13.7857H158.007V51.6991ZM172.839 13.8507V25.2276H159.643L172.839 13.8507ZM0.182983 32.4233V32.2852C0.182983 21.6385 7.78027 12.8713 18.6539 12.8713C31.1293 12.8713 36.8455 22.5433 36.8455 33.1202C36.8455 33.9551 36.7757 34.9282 36.7058 35.9029H10.7074C11.0425 38.0404 12.1654 39.9752 13.8551 41.3266C15.5449 42.6779 17.6792 43.348 19.8381 43.2049C21.5309 43.2275 23.21 42.8991 24.7695 42.2404C26.3289 41.5817 27.735 40.6069 28.899 39.3777L34.9629 44.7367C33.1367 47.006 30.8056 48.8173 28.1554 50.026C25.5052 51.2348 22.6093 51.8077 19.6984 51.6991C8.47713 51.6991 0.182983 43.8351 0.182983 32.4233ZM26.5338 29.2914C25.9068 24.5609 23.1193 21.3544 18.6587 21.3544C14.2664 21.3544 11.4091 24.4863 10.5725 29.2914H26.5338ZM39.9187 14.1222H50.6527L56.6467 36.7363L63.6789 10.2553H72.808L79.918 36.8077L92.8997 1.0722H103.424L84.9389 51.6991H75.3907L68.2125 25.0768L60.893 51.6991H51.4147L39.9187 14.1222ZM100.045 32.4217V32.2852C100.045 21.5687 108.688 12.8713 120.328 12.8713C131.897 12.8713 140.471 21.4306 140.471 32.1455V32.2852C140.471 43.0017 131.827 51.6991 120.189 51.6991C108.613 51.6991 100.04 43.1398 100.04 32.4233L100.045 32.4217ZM130.016 32.4217V32.2852C130.067 30.9586 129.852 29.6351 129.382 28.3934C128.912 27.1517 128.198 26.0169 127.281 25.0564C126.365 24.0959 125.265 23.3292 124.046 22.8018C122.828 22.2744 121.516 21.9971 120.189 21.9862C114.125 21.9862 110.506 26.6483 110.506 32.1455V32.2852C110.454 33.6117 110.67 34.9349 111.14 36.1765C111.61 37.418 112.324 38.5526 113.241 39.5129C114.157 40.4733 115.257 41.2398 116.476 41.7671C117.694 42.2944 119.006 42.5717 120.333 42.5826C126.381 42.5826 130.011 37.9205 130.011 32.4233L130.016 32.4217ZM189.76 36.6251V51.6991H179.162V0.902344H189.755V27.9706L202.162 13.7809H214.226L198.131 32.1915L215.336 51.6991H203.068L189.76 36.6251ZM217.498 46.0638L222.028 39.1047C225.411 41.7509 229.52 43.304 233.808 43.5573C236.875 43.5573 238.269 42.4461 238.269 40.7746V40.6349C238.269 38.3379 234.643 37.5728 230.532 36.3204C225.305 34.7901 219.38 32.3519 219.38 25.1181V24.9784C219.38 17.3938 225.512 13.1491 233.042 13.1491C238.005 13.221 242.844 14.7187 246.98 17.4637L242.937 24.7657C239.903 22.7987 236.434 21.6041 232.832 21.2861C230.252 21.2861 228.929 22.3973 228.929 23.8609V24.0006C228.929 26.088 232.483 27.0627 236.526 28.4532C241.753 30.1994 247.817 32.6979 247.817 39.5174V39.6571C247.817 47.9369 241.613 51.6943 233.53 51.6943C227.709 51.6501 222.068 49.6685 217.498 46.0622V46.0638Z" fill="#FF123E"/>
</svg>
