<svg width="32" height="33" viewBox="0 0 32 33" fill="none" xmlns="http://www.w3.org/2000/svg">
<path d="M21.3334 11.4575C23.4551 11.4575 25.4899 12.3004 26.9902 13.8007C28.4905 15.301 29.3334 17.3358 29.3334 19.4575V28.7909H24V19.4575C24 18.7503 23.7191 18.072 23.219 17.5719C22.7189 17.0718 22.0406 16.7909 21.3334 16.7909C20.6261 16.7909 19.9479 17.0718 19.4478 17.5719C18.9477 18.072 18.6667 18.7503 18.6667 19.4575V28.7909H13.3334V19.4575C13.3334 17.3358 14.1762 15.301 15.6765 13.8007C17.1768 12.3004 19.2116 11.4575 21.3334 11.4575Z" fill="#BF0302"/>
<path d="M7.99996 12.791H2.66663V28.791H7.99996V12.791Z" fill="#BF0302"/>
<path d="M5.33329 8.79085C6.80605 8.79085 7.99996 7.59694 7.99996 6.12419C7.99996 4.65143 6.80605 3.45752 5.33329 3.45752C3.86053 3.45752 2.66663 4.65143 2.66663 6.12419C2.66663 7.59694 3.86053 8.79085 5.33329 8.79085Z" fill="#BF0302"/>
</svg>
