<svg width="32" height="33" viewBox="0 0 32 33" fill="none" xmlns="http://www.w3.org/2000/svg">
<path d="M28 14.2983C28 23.6317 16 31.6317 16 31.6317C16 31.6317 4 23.6317 4 14.2983C4 11.1157 5.26428 8.06349 7.51472 5.81306C9.76515 3.56262 12.8174 2.29834 16 2.29834C19.1826 2.29834 22.2348 3.56262 24.4853 5.81306C26.7357 8.06349 28 11.1157 28 14.2983Z" fill="#BF0302"/>
<path d="M16 18.2983C18.2091 18.2983 20 16.5075 20 14.2983C20 12.0892 18.2091 10.2983 16 10.2983C13.7909 10.2983 12 12.0892 12 14.2983C12 16.5075 13.7909 18.2983 16 18.2983Z" stroke="white" stroke-width="3.33" stroke-linecap="round" stroke-linejoin="round"/>
</svg>
