<svg width="32" height="33" viewBox="0 0 32 33" fill="none" xmlns="http://www.w3.org/2000/svg">
<path d="M29.3334 23.5248V27.5248C29.3349 27.8961 29.2589 28.2637 29.1101 28.6039C28.9613 28.9442 28.7431 29.2496 28.4695 29.5006C28.1959 29.7517 27.8728 29.9428 27.5211 30.0618C27.1693 30.1807 26.7966 30.2249 26.4267 30.1915C22.3239 29.7457 18.3827 28.3437 14.9201 26.0981C11.6985 24.051 8.96719 21.3197 6.92007 18.0981C4.66671 14.6197 3.2644 10.6595 2.82674 6.53814C2.79342 6.16943 2.83724 5.79782 2.95541 5.44698C3.07357 5.09613 3.2635 4.77373 3.51309 4.50031C3.76269 4.22688 4.06648 4.00842 4.40513 3.85884C4.74378 3.70926 5.10986 3.63183 5.48007 3.63148H9.48007C10.1271 3.62511 10.7545 3.85425 11.2451 4.27619C11.7357 4.69813 12.0562 5.28407 12.1467 5.92481C12.3156 7.2049 12.6287 8.46178 13.0801 9.67148C13.2595 10.1487 13.2983 10.6674 13.1919 11.166C13.0856 11.6646 12.8386 12.1223 12.4801 12.4848L10.7867 14.1781C12.6848 17.5162 15.4487 20.2801 18.7867 22.1781L20.4801 20.4848C20.8426 20.1263 21.3003 19.8793 21.7989 19.7729C22.2975 19.6666 22.8162 19.7054 23.2934 19.8848C24.5031 20.3362 25.76 20.6493 27.0401 20.8181C27.6878 20.9095 28.2793 21.2358 28.7021 21.7348C29.125 22.2339 29.3496 22.8709 29.3334 23.5248Z" fill="#BF0302"/>
</svg>
