<svg width="30" height="25" viewBox="0 0 30 25" fill="none" xmlns="http://www.w3.org/2000/svg">
<path d="M29.6667 0.617412C28.3899 1.51805 26.9762 2.20689 25.48 2.65741C24.677 1.73409 23.6098 1.07967 22.4228 0.782646C21.2357 0.485625 19.986 0.560339 18.8428 0.996683C17.6996 1.43303 16.718 2.20995 16.0307 3.22237C15.3434 4.23479 14.9836 5.43386 15 6.65741V7.99074C12.6569 8.0515 10.3351 7.53183 8.24138 6.47801C6.1477 5.42418 4.34713 3.86893 3.00004 1.95074C3.00004 1.95074 -2.33329 13.9507 9.66671 19.2841C6.92074 21.148 3.64958 22.0827 0.333374 21.9507C12.3334 28.6174 27 21.9507 27 6.61741C26.9988 6.24602 26.9631 5.87554 26.8934 5.51075C28.2542 4.16874 29.2145 2.47436 29.6667 0.617412Z" fill="#BF0302"/>
</svg>
