<svg width="73" height="37" viewBox="0 0 73 37" fill="none" xmlns="http://www.w3.org/2000/svg">
<path d="M35.2818 33.3987C35.9897 33.642 37.9903 33.6572 38.7443 33.4139C38.7597 33.1249 38.8059 32.8056 38.8059 32.4862C38.8059 27.4522 38.8059 22.4183 38.8059 17.3843C38.8059 17.0649 38.8367 16.7455 38.8367 16.4414C39.4984 16.2589 47.5622 16.2437 48.3778 16.411C48.4855 17.1866 48.4547 17.9774 48.3932 18.8291C48.07 18.8595 47.793 18.8899 47.5314 18.8899C45.8694 18.8899 44.192 18.8899 42.53 18.8899C42.2376 18.8899 41.9298 18.9507 41.5451 18.9812C41.5143 24.6995 41.5451 30.357 41.5297 35.9841C40.9142 36.1666 33.8814 36.2274 32.558 36.0754C32.5272 35.7864 32.481 35.467 32.481 35.1476C32.481 30.1137 32.481 25.0797 32.481 20.0458C32.481 19.7264 32.481 19.3918 32.481 18.9964C32.1117 18.9507 31.8193 18.8899 31.5269 18.8899C29.8649 18.8747 28.1875 18.8899 26.5255 18.8899C26.2485 18.8899 25.9715 18.8595 25.6484 18.8443C25.6484 18.0078 25.6484 17.2322 25.6484 16.3957C25.833 16.3653 26.0177 16.3045 26.2178 16.3045C29.0185 16.3045 31.8039 16.3045 34.6047 16.3045C34.774 16.3045 34.9433 16.3501 35.1895 16.3805C35.2049 16.7151 35.2357 17.0497 35.2357 17.3691C35.2357 22.403 35.2357 27.437 35.2357 32.471C35.2357 32.7903 35.2664 33.1097 35.2818 33.3987Z" fill="#BF0302"/>
<path d="M57.1341 36.0752C57.1187 35.7558 57.0879 35.4516 57.0879 35.1627C57.0879 30.1287 57.0879 25.0947 57.0879 20.0608C57.0879 19.711 57.0417 19.3764 57.0264 18.9658C56.657 18.9353 56.3646 18.8897 56.0569 18.8897C54.441 18.8897 52.8252 18.8897 51.2093 18.8897C50.9016 18.8897 50.6092 18.8593 50.2552 18.8441C50.1167 17.9924 50.1475 17.2016 50.2245 16.4412C50.8708 16.2587 58.9038 16.2283 59.781 16.3955C59.7964 16.6997 59.8271 17.0039 59.8271 17.3233C59.8271 22.3572 59.8271 27.3912 59.8271 32.4251C59.8271 32.7445 59.8271 33.0639 59.8271 33.4593C61.0275 33.6874 62.1201 33.5658 63.3204 33.5506C63.3512 33.1247 63.3974 32.7749 63.3974 32.4404C63.3974 27.4368 63.3974 22.4333 63.3974 17.4145C63.3974 17.0951 63.3974 16.7605 63.3974 16.3955C64.2591 16.213 65.044 16.3195 65.8288 16.3043C66.629 16.2891 67.4139 16.3043 68.2141 16.3043C69.0143 16.3043 69.7991 16.3043 70.5994 16.3043C71.3842 16.3043 72.169 16.3195 73 16.3195C73 17.1864 73 17.962 73 18.8137C72.723 18.8441 72.4614 18.8897 72.1998 18.8897C70.5378 18.8897 68.8758 18.8897 67.1984 18.9049C66.8752 18.9049 66.5521 18.9658 66.152 18.9962C66.152 24.7145 66.152 30.372 66.152 35.9991C65.5056 36.1816 58.4267 36.2424 57.1341 36.0752Z" fill="#BF0302"/>
<path d="M16.969 36.045C16.0919 36.2123 8.64364 36.1971 7.93575 36.0298C7.92036 34.6458 7.93575 33.2314 7.92036 31.8323C7.92036 30.4179 7.92036 29.0035 7.92036 27.5892C7.92036 26.1748 7.92036 24.7604 7.92036 23.346C7.92036 21.9316 7.92036 20.5173 7.92036 19.0268C7.52025 18.9812 7.21247 18.9204 6.88931 18.9204C5.24269 18.9052 3.61147 18.9204 1.96486 18.9204C1.68786 18.9204 1.41086 18.9204 1.05691 18.9204C0.933803 18.0535 1.01075 17.2475 1.01075 16.411C1.85714 16.2437 2.64197 16.3502 3.4268 16.335C4.22703 16.3198 5.01186 16.335 5.81208 16.335C6.58153 16.335 7.35097 16.335 8.12042 16.335C8.90525 16.335 9.70547 16.335 10.5826 16.335C10.6134 16.7152 10.6596 17.0346 10.6596 17.3539C10.6596 22.3575 10.6596 27.3762 10.6596 32.3798C10.6596 32.6079 10.6442 32.836 10.675 33.0642C10.6904 33.2162 10.7365 33.3531 10.7827 33.5508C11.9061 33.6725 13.0141 33.6725 14.2144 33.5508C14.2298 30.646 14.2144 27.7869 14.2144 24.9429C14.2144 22.1141 14.2144 19.2854 14.2144 16.5023C14.8915 16.3198 22.9399 16.2893 23.8017 16.4566C23.9556 17.2323 23.8633 18.0079 23.8479 18.8748C23.4785 18.9052 23.1861 18.9508 22.8784 18.9508C21.2625 18.9508 19.6467 18.9508 18.0309 18.9508C17.7231 18.9508 17.4307 18.9812 17.0306 18.9964C16.9998 19.3766 16.9536 19.7264 16.9536 20.061C16.9536 25.095 16.9536 30.1289 16.9536 35.1629C16.969 35.4215 16.969 35.7256 16.969 36.045Z" fill="#BF0302"/>
<path d="M44.3151 7.77264C44.3151 11.0272 42.0529 13.7647 38.6828 14.5404C35.4049 15.3008 31.9578 13.7799 30.4651 10.8143C29.0185 7.93993 29.6956 4.67014 32.204 2.57138C35.1895 0.062004 39.6676 0.290129 42.3761 3.05805C43.6534 4.36597 44.2997 5.94764 44.3151 7.77264ZM36.9592 12.0918C39.4522 12.1222 41.4374 10.2364 41.4989 7.80306C41.5605 5.49139 39.5445 3.5143 37.0823 3.45347C34.6816 3.39263 32.5888 5.3393 32.5426 7.68139C32.4964 10.0539 34.497 12.0614 36.9592 12.0918Z" fill="#BF0302"/>
<path d="M54.3334 7.77248C54.2564 4.60914 56.6109 1.76518 59.8118 1.05039C62.4125 0.472472 64.767 1.01997 66.7061 2.86018C69.8608 5.82581 69.5068 10.7837 65.9828 13.3235C62.4279 15.8937 57.4881 14.9052 55.2259 11.1792C54.595 10.1298 54.318 8.97394 54.3334 7.77248ZM66.0597 7.8029C66.1828 5.49123 64.1207 3.4381 61.5969 3.46852C58.9039 3.49893 57.088 5.43039 57.088 7.78769C57.1034 10.3275 59.1501 12.0308 61.5354 12.0917C64.013 12.1373 66.152 10.1146 66.0597 7.8029Z" fill="#BF0302"/>
<path d="M11.6599 0.837891C15.5071 0.837891 18.154 2.55643 19.2466 5.29394C20.3546 8.09228 19.539 11.2404 17.0922 13.1567C14.1529 15.4531 9.92093 15.2706 7.25865 12.6548C4.1501 9.61311 4.62715 4.92894 7.81265 2.41956C9.18227 1.35497 10.7212 0.853099 11.6599 0.837891ZM12.3678 12.0769C14.6453 12.0921 16.9075 10.556 16.9383 7.75769C16.969 5.47644 15.1378 3.51456 12.4909 3.46894C10.0594 3.42331 8.07427 5.32436 7.96654 7.60561C7.85882 10.0846 10.0133 12.0921 12.3678 12.0769Z" fill="#BF0302"/>
</svg>
