<svg width="368" height="84" viewBox="0 0 368 84" fill="none" xmlns="http://www.w3.org/2000/svg">
<path d="M357.848 67.6789C358.005 65.4059 358.162 63.9167 358.162 62.4274C358.24 54.1192 358.162 45.811 358.24 37.5811C358.319 27.4702 358.554 17.2809 358.711 7.1699C358.711 6.07259 358.946 4.97526 359.181 3.48605C361.768 3.48605 364.12 3.48605 366.942 3.48605C367.099 4.81851 367.334 6.22935 367.334 7.5618C367.256 28.0188 367.256 48.3975 367.099 68.8546C367.099 73.5573 366.629 78.1817 366.315 83.198C363.414 83.198 360.906 83.198 357.77 83.198C349.146 72.6168 340.757 61.2517 332.134 50.1219C323.588 39.0703 315.435 27.7837 306.262 16.5754C304.694 20.5728 305.478 23.9431 305.322 27.2351C305.165 30.6838 305.322 34.1325 305.322 37.5028C305.322 40.7947 305.322 44.0866 305.322 47.3786C305.322 50.7489 305.322 54.1976 305.322 57.9598C307.203 58.2733 308.693 58.6652 310.182 58.6652C314.181 58.7436 318.179 58.7436 322.177 58.7436C323.745 58.7436 325.235 58.9004 326.646 59.0571C328.057 61.722 327.43 64.0734 327.273 66.268C323.588 67.6005 301.245 67.6789 296.855 66.5032C295.757 62.9761 295.757 7.09153 296.855 3.40769C302.891 1.21307 306.498 2.15361 310.261 7.09152C323.039 23.7863 335.818 40.4812 348.597 57.176C350.792 59.9977 352.987 62.8193 355.261 65.5626C355.81 66.268 356.594 66.66 357.848 67.6789Z" fill="white"/>
<path d="M199.171 41.8137C198.857 20.8864 215.87 4.03479 234.842 1.36988C250.129 -0.746363 263.222 3.32936 273.806 14.5376C289.093 30.8406 288.466 55.6085 272.394 71.2844C250.992 92.1333 213.91 85.863 201.915 57.2545C200.112 53.022 199.092 47.6138 199.171 41.8137ZM275.766 41.7353C276.158 36.092 274.354 30.6054 271.14 25.5108C261.576 10.1484 242.838 4.81858 226.453 12.6565C208.187 21.435 201.836 44.4786 213.596 60.6248C221.906 71.9898 233.274 76.4574 247.307 74.6547C263.065 72.6168 276.393 57.8031 275.766 41.7353Z" fill="white"/>
<path d="M0.510309 42.0491C0.0399216 22.4542 15.7195 4.1134 36.6518 1.37012C53.1937 -0.824508 66.9134 4.34853 77.4187 17.2028C90.5896 33.3489 88.5512 57.3331 73.4204 71.6765C56.4865 87.6659 28.7336 87.7443 12.5052 71.2063C4.6654 63.1332 0.353513 53.5709 0.510309 42.0491ZM77.2619 42.5977C77.2619 35.1517 75.2236 28.8813 71.1469 23.238C61.4255 9.8351 43.1588 4.97558 27.4008 12.8135C10.6236 21.1218 4.11661 41.8139 13.2108 57.725C19.561 68.9332 32.8887 76.8496 48.4115 74.7333C64.7966 72.4603 77.4971 58.0385 77.2619 42.5977Z" fill="white"/>
<path d="M103.133 11.4026C103.133 8.58094 103.133 6.30794 103.133 3.64304C104.544 3.48628 105.72 3.25114 106.975 3.25114C115.599 3.25114 124.144 3.17276 132.768 3.25114C146.095 3.4079 157.228 13.2837 158.247 26.4515C158.953 35.6219 154.954 43.1463 147.428 48.5545C144.919 50.3572 142.019 51.6113 138.804 53.414C139.667 55.06 140.372 56.7059 141.313 58.1952C145.703 65.2493 150.094 72.2251 154.484 79.2792C155.189 80.4549 155.817 81.709 156.679 83.2766C155.346 83.4333 154.562 83.5901 153.7 83.6685C151.426 83.7469 149.153 83.6685 146.723 83.6685C145.311 81.7874 143.979 80.1414 142.881 78.3387C138.569 71.4413 134.257 64.5439 129.945 57.5681C129.161 56.2357 128.221 54.9816 127.28 53.7275C120.694 53.7275 114.266 53.7275 107.367 53.7275C107.21 55.4519 106.975 56.9411 106.975 58.4303C106.896 65.0142 106.975 71.598 106.975 78.1819C106.975 79.7495 106.818 81.2387 106.74 82.6495C103.133 83.982 102.271 83.982 98.5862 82.9631C97.567 79.6711 97.4102 50.2004 98.5078 45.5761C99.9973 45.4977 101.722 45.2625 103.368 45.2625C112.541 45.2625 121.714 45.2625 130.808 45.2625C137.08 45.2625 142.175 42.8328 146.017 37.7381C152.838 28.5677 147.506 14.6946 136.217 12.4216C134.1 12.0297 131.984 11.8729 129.789 11.8729C122.654 11.7945 115.442 11.8729 108.308 11.8729C106.74 11.7161 105.172 11.5594 103.133 11.4026Z" fill="white"/>
<path d="M178.709 83.2766C175.73 83.2766 173.221 83.2766 170.869 83.2766C169.85 79.8279 169.615 9.44308 170.477 4.0349C172.986 2.62406 175.573 3.17272 178.63 3.643C178.787 4.89707 179.101 6.07277 179.101 7.32684C179.101 31.3893 179.101 55.3735 179.101 79.436C179.101 80.6117 178.944 81.709 178.709 83.2766Z" fill="white"/>
<path d="M337.073 83.3549C323.588 83.3549 310.339 83.3549 297.011 83.3549C295.679 80.8468 296.071 78.417 296.619 75.9873C300.147 74.7332 333.153 74.6548 337.308 75.8305C338.249 78.1035 338.092 80.4549 337.073 83.3549Z" fill="white"/>
</svg>
