<svg width="368" height="183" viewBox="0 0 368 183" fill="none" xmlns="http://www.w3.org/2000/svg">
<path d="M175.347 167.889C178.953 169.143 189.145 169.222 192.986 167.968C193.064 166.478 193.3 164.832 193.3 163.186C193.3 137.243 193.3 111.299 193.3 85.3556C193.3 83.7096 193.456 82.0636 193.456 80.496C196.828 79.5555 237.908 79.4771 242.063 80.3393C242.612 84.3366 242.455 88.4124 242.142 92.8016C240.495 92.9584 239.084 93.1151 237.751 93.1151C229.284 93.1151 220.739 93.1151 212.272 93.1151C210.782 93.1151 209.214 93.4287 207.255 93.5854C207.098 123.056 207.255 152.213 207.176 181.214C204.04 182.154 168.212 182.468 161.47 181.684C161.313 180.195 161.078 178.549 161.078 176.903C161.078 150.959 161.078 125.016 161.078 99.072C161.078 97.426 161.078 95.7017 161.078 93.6638C159.197 93.4287 157.707 93.1151 156.217 93.1151C147.75 93.0368 139.205 93.1151 130.738 93.1151C129.327 93.1151 127.916 92.9584 126.269 92.88C126.269 88.5691 126.269 84.5718 126.269 80.2609C127.21 80.1041 128.151 79.7906 129.17 79.7906C143.439 79.7906 157.629 79.7906 171.897 79.7906C172.759 79.7906 173.622 80.0258 174.876 80.1825C174.955 81.9069 175.111 83.6312 175.111 85.2772C175.111 111.221 175.111 137.164 175.111 163.108C175.111 164.754 175.268 166.4 175.347 167.889Z" fill="white"/>
<path d="M286.672 181.684C286.593 180.038 286.436 178.47 286.436 176.981C286.436 151.037 286.436 125.094 286.436 99.1502C286.436 97.3475 286.201 95.6231 286.123 93.5069C284.241 93.3501 282.752 93.115 281.184 93.115C272.952 93.115 264.72 93.115 256.488 93.115C254.921 93.115 253.431 92.9582 251.628 92.8798C250.922 88.4906 251.079 84.4148 251.471 80.4959C254.764 79.5553 295.687 79.3986 300.156 80.2607C300.235 81.8283 300.391 83.3959 300.391 85.0419C300.391 110.985 300.391 136.929 300.391 162.873C300.391 164.519 300.391 166.165 300.391 168.203C306.506 169.378 312.073 168.751 318.188 168.673C318.344 166.478 318.58 164.675 318.58 162.951C318.58 137.164 318.58 111.377 318.58 85.5122C318.58 83.8662 318.58 82.1418 318.58 80.2607C322.97 79.3202 326.968 79.8688 330.967 79.7905C335.043 79.7121 339.042 79.7905 343.118 79.7905C347.195 79.7905 351.193 79.7905 355.27 79.7905C359.268 79.7905 363.266 79.8688 367.5 79.8688C367.5 84.3365 367.5 88.3338 367.5 92.7231C366.089 92.8798 364.756 93.115 363.423 93.115C354.956 93.115 346.489 93.115 337.944 93.1934C336.298 93.1934 334.651 93.5069 332.613 93.6636C332.613 123.134 332.613 152.291 332.613 181.292C329.399 182.232 293.257 182.546 286.672 181.684Z" fill="white"/>
<path d="M82.053 181.527C77.5843 182.389 39.6397 182.311 36.0334 181.449C35.955 174.316 36.0334 167.027 35.955 159.816C35.955 152.527 35.955 145.237 35.955 137.948C35.955 130.659 35.955 123.37 35.955 116.08C35.955 108.791 35.955 101.502 35.955 93.8205C33.9166 93.5854 32.3487 93.2719 30.7023 93.2719C22.3137 93.1935 14.0035 93.2719 5.61496 93.2719C4.2038 93.2719 2.79263 93.2719 0.989479 93.2719C0.362295 88.8043 0.754285 84.6501 0.754285 80.3393C5.06617 79.4771 9.06447 80.0258 13.0628 79.9474C17.1395 79.869 21.1378 79.9474 25.2144 79.9474C29.1343 79.9474 33.0542 79.9474 36.9741 79.9474C40.9724 79.9474 45.0491 79.9474 49.5178 79.9474C49.6746 81.9069 49.9098 83.5528 49.9098 85.1988C49.9098 110.986 49.9098 136.851 49.9098 162.638C49.9098 163.813 49.8314 164.989 49.9882 166.165C50.0666 166.949 50.3018 167.654 50.537 168.673C56.26 169.3 61.9047 169.3 68.0197 168.673C68.0981 153.702 68.0197 138.967 68.0197 124.31C68.0197 109.732 68.0197 95.153 68.0197 80.8096C71.4692 79.869 112.471 79.7122 116.862 80.5744C117.646 84.5718 117.175 88.5691 117.097 93.0367C115.215 93.1935 113.726 93.4286 112.158 93.4286C103.926 93.4286 95.6942 93.4286 87.4624 93.4286C85.8945 93.4286 84.4049 93.5854 82.3666 93.6638C82.2098 95.6233 81.9746 97.426 81.9746 99.1503C81.9746 125.094 81.9746 151.038 81.9746 176.981C82.053 178.314 82.053 179.881 82.053 181.527Z" fill="white"/>
<path d="M221.366 35.8196C221.366 52.5928 209.842 66.7011 192.673 70.6984C175.974 74.6174 158.413 66.7794 150.808 51.4954C143.439 36.6817 146.888 19.8301 159.667 9.01377C174.876 -3.91885 197.69 -2.74315 211.488 11.5219C217.995 18.2625 221.366 26.414 221.366 35.8196ZM183.97 58.0793C196.671 58.2361 206.784 48.517 207.098 35.9763C207.411 24.0626 197.141 13.8733 184.598 13.5598C172.367 13.2463 161.705 23.2788 161.47 35.3493C161.157 47.5765 171.348 57.9226 183.97 58.0793Z" fill="white"/>
<path d="M272.403 35.8196C272.011 19.5167 284.006 4.85971 300.313 1.17587C313.562 -1.80255 325.557 1.01911 335.435 10.503C351.507 25.787 349.704 51.3387 331.75 64.4281C313.719 77.5959 288.553 72.5796 277.029 53.3766C273.736 47.9684 272.403 42.0116 272.403 35.8196ZM332.142 35.9764C332.77 24.0627 322.264 13.4814 309.407 13.6382C295.687 13.795 286.436 23.7492 286.436 35.898C286.515 48.9874 296.942 57.7659 309.093 58.0794C321.715 58.3145 332.613 47.89 332.142 35.9764Z" fill="white"/>
<path d="M55.0057 0.0786133C74.6052 0.0786133 88.0896 8.93549 93.6559 23.0438C99.3005 37.4656 95.1454 53.6902 82.6801 63.566C67.7061 75.4013 46.1467 74.4607 32.5839 60.9795C16.7475 45.3036 19.1778 21.1627 35.4846 8.23008C42.3836 2.74352 50.2234 0.156993 55.0057 0.0786133ZM58.6904 58.001C70.2933 58.0794 81.8178 50.1631 81.9746 35.7413C82.1314 23.9844 72.802 13.8734 59.3176 13.6383C46.8523 13.4031 36.7389 23.1222 36.2686 34.8791C35.6414 47.7333 46.6171 58.0794 58.6904 58.001Z" fill="white"/>
</svg>
