<svg width="97" height="23" viewBox="0 0 97 23" fill="none" xmlns="http://www.w3.org/2000/svg">
<path d="M93.8889 18.1757C93.9298 17.5828 93.9707 17.1943 93.9707 16.8058C93.9912 14.6386 93.9707 12.4713 93.9912 10.3245C94.0116 7.68703 94.073 5.02909 94.1139 2.39159C94.1139 2.10535 94.1752 1.81911 94.2366 1.43064C94.9115 1.43064 95.525 1.43064 96.2612 1.43064C96.3021 1.77822 96.3634 2.14624 96.3634 2.49382C96.343 7.83016 96.343 13.146 96.3021 18.4824C96.3021 19.7091 96.1794 20.9154 96.0976 22.224C95.3409 22.224 94.6865 22.224 93.8685 22.224C91.6189 19.4638 89.4307 16.4991 87.1811 13.5959C84.952 10.713 82.8252 7.76882 80.4325 4.84508C80.0235 5.88781 80.228 6.76698 80.1871 7.6257C80.1462 8.52531 80.1871 9.42493 80.1871 10.3041C80.1871 11.1628 80.1871 12.0215 80.1871 12.8802C80.1871 13.7594 80.1871 14.659 80.1871 15.6404C80.6779 15.7222 81.0664 15.8244 81.455 15.8244C82.498 15.8449 83.5409 15.8449 84.5839 15.8449C84.9929 15.8449 85.3815 15.8858 85.7496 15.9267C86.1177 16.6218 85.9541 17.2352 85.9132 17.8077C84.952 18.1552 79.1236 18.1757 77.9784 17.869C77.6921 16.949 77.6921 2.37115 77.9784 1.4102C79.5531 0.837718 80.4938 1.08306 81.4754 2.37114C84.8089 6.72609 88.1423 11.081 91.4758 15.436C92.0484 16.172 92.621 16.9081 93.2141 17.6237C93.3572 17.8077 93.5617 17.9099 93.8889 18.1757Z" fill="#BF0302"/>
<path d="M52.4971 11.4286C52.4153 5.96957 56.8531 1.57374 61.8021 0.878583C65.7899 0.326548 69.2052 1.38972 71.966 4.31346C75.9539 8.56617 75.7903 15.027 71.5979 19.1162C66.0149 24.5547 56.3418 22.9191 53.2129 15.4564C52.7425 14.3523 52.4766 12.9416 52.4971 11.4286ZM72.4773 11.4081C72.5795 9.93604 72.1092 8.50484 71.2707 7.17587C68.7757 3.1685 63.888 1.77819 59.6139 3.82277C54.8489 6.11269 53.1924 12.1237 56.26 16.3356C58.4277 19.3002 61.3931 20.4656 65.0537 19.9953C69.1643 19.4638 72.6409 15.5995 72.4773 11.4081Z" fill="#BF0302"/>
<path d="M0.675358 11.4899C0.552654 6.3785 4.64276 1.5942 10.1031 0.878602C14.4181 0.306122 17.997 1.65554 20.7373 5.00864C24.173 9.22046 23.6413 15.4769 19.6944 19.2184C15.277 23.3893 8.03755 23.4098 3.80429 19.0958C1.75924 16.9898 0.634457 14.4955 0.675358 11.4899ZM20.6964 11.6331C20.6964 9.69071 20.1647 8.05505 19.1013 6.58296C16.5654 3.08674 11.8005 1.81911 7.68989 3.86368C3.31348 6.03093 1.61608 11.4286 3.98835 15.5791C5.64484 18.5028 9.12143 20.5678 13.1706 20.0158C17.4448 19.4229 20.7578 15.6609 20.6964 11.6331Z" fill="#BF0302"/>
<path d="M27.4451 3.49579C27.4451 2.75975 27.4451 2.16682 27.4451 1.47167C27.8132 1.43078 28.1199 1.36944 28.4471 1.36944C30.6967 1.36944 32.9258 1.34899 35.1754 1.36944C38.652 1.41033 41.556 3.98649 41.8218 7.42137C42.0059 9.81352 40.9629 11.7763 38.9996 13.1871C38.3452 13.6573 37.5885 13.9844 36.7501 14.4547C36.975 14.8841 37.1591 15.3134 37.4045 15.7019C38.5497 17.542 39.695 19.3617 40.8402 21.2018C41.0242 21.5085 41.1878 21.8356 41.4128 22.2445C41.0651 22.2854 40.8606 22.3263 40.6357 22.3468C40.0426 22.3672 39.4495 22.3468 38.8156 22.3468C38.4475 21.8561 38.0998 21.4267 37.8135 20.9564C36.6887 19.1572 35.5639 17.358 34.4392 15.5383C34.2347 15.1907 33.9892 14.8636 33.7438 14.5365C32.026 14.5365 30.3491 14.5365 28.5494 14.5365C28.5085 14.9863 28.4471 15.3748 28.4471 15.7632C28.4267 17.4807 28.4471 19.1981 28.4471 20.9156C28.4471 21.3245 28.4062 21.7129 28.3858 22.081C27.4451 22.4285 27.2201 22.4285 26.2589 22.1627C25.9931 21.304 25.9522 13.6164 26.2385 12.4101C26.627 12.3897 27.077 12.3283 27.5064 12.3283C29.8991 12.3283 32.2919 12.3283 34.6641 12.3283C36.3002 12.3283 37.6294 11.6945 38.6315 10.3656C40.4107 7.97341 39.0201 4.35452 36.0752 3.76159C35.523 3.65936 34.9709 3.61847 34.3983 3.61847C32.5373 3.59802 30.6558 3.61847 28.7948 3.61847C28.3858 3.57758 27.9768 3.53668 27.4451 3.49579Z" fill="#BF0302"/>
<path d="M47.1596 22.244C46.3824 22.244 45.728 22.244 45.1145 22.244C44.8487 21.3443 44.7873 2.98409 45.0123 1.57333C45.6667 1.20531 46.3415 1.34843 47.1391 1.4711C47.18 1.79823 47.2618 2.10492 47.2618 2.43205C47.2618 8.70889 47.2618 14.9653 47.2618 21.2421C47.2618 21.5488 47.2209 21.835 47.1596 22.244Z" fill="#BF0302"/>
<path d="M88.4696 22.2651C84.9521 22.2651 81.496 22.2651 78.0194 22.2651C77.6717 21.6108 77.774 20.977 77.9171 20.3432C78.8374 20.016 87.4471 19.9956 88.5309 20.3023C88.7763 20.8952 88.7354 21.5086 88.4696 22.2651Z" fill="#BF0302"/>
</svg>
