<svg width="192" height="200" viewBox="0 0 192 200" fill="none" xmlns="http://www.w3.org/2000/svg">
<path d="M185.618 148.912C185.699 147.735 185.78 146.963 185.78 146.192C185.821 141.889 185.78 137.586 185.821 133.323C185.861 128.086 185.983 122.809 186.064 117.572C186.064 117.004 186.186 116.435 186.308 115.664C187.648 115.664 188.866 115.664 190.328 115.664C190.409 116.354 190.531 117.085 190.531 117.775C190.49 128.37 190.49 138.925 190.409 149.521C190.409 151.957 190.165 154.352 190.003 156.95C188.501 156.95 187.201 156.95 185.577 156.95C181.11 151.47 176.766 145.583 172.299 139.819C167.873 134.094 163.65 128.249 158.899 122.443C158.087 124.514 158.493 126.259 158.412 127.964C158.331 129.751 158.412 131.537 158.412 133.283C158.412 134.988 158.412 136.693 158.412 138.398C158.412 140.143 158.412 141.93 158.412 143.878C159.386 144.04 160.158 144.243 160.929 144.243C163 144.284 165.071 144.284 167.142 144.284C167.954 144.284 168.726 144.365 169.457 144.446C170.187 145.827 169.863 147.045 169.781 148.181C167.873 148.871 156.3 148.912 154.026 148.303C153.458 146.476 153.458 117.531 154.026 115.623C157.153 114.487 159.021 114.974 160.97 117.531C167.589 126.178 174.207 134.825 180.826 143.472C181.963 144.934 183.1 146.395 184.278 147.816C184.562 148.181 184.968 148.384 185.618 148.912Z" fill="white"/>
<path d="M103.432 135.515C103.269 124.676 112.081 115.948 121.907 114.568C129.825 113.472 136.606 115.583 142.088 121.388C150.006 129.832 149.681 142.66 141.357 150.779C130.272 161.578 111.065 158.33 104.853 143.513C103.919 141.32 103.391 138.519 103.432 135.515ZM143.103 135.475C143.306 132.552 142.372 129.71 140.708 127.071C135.754 119.114 126.049 116.354 117.562 120.413C108.101 124.96 104.812 136.895 110.903 145.258C115.207 151.145 121.095 153.459 128.363 152.525C136.525 151.469 143.428 143.797 143.103 135.475Z" fill="white"/>
<path d="M0.537322 135.637C0.293689 125.488 8.4148 115.988 19.2565 114.567C27.8242 113.431 34.9302 116.11 40.3714 122.768C47.1931 131.131 46.1373 143.553 38.3005 150.982C29.5297 159.264 15.1553 159.304 6.74997 150.738C2.68942 146.557 0.456111 141.604 0.537322 135.637ZM40.2901 135.921C40.2901 132.064 39.2344 128.817 37.1229 125.894C32.0878 118.952 22.6267 116.435 14.465 120.494C5.77544 124.798 2.40518 135.515 7.11542 143.756C10.4045 149.561 17.3074 153.661 25.3473 152.565C33.8339 151.388 40.412 143.918 40.2901 135.921Z" fill="white"/>
<path d="M53.6899 119.764C53.6899 118.302 53.6899 117.125 53.6899 115.745C54.4208 115.664 55.0299 115.542 55.6796 115.542C60.1462 115.542 64.5722 115.501 69.0388 115.542C75.9418 115.623 81.7078 120.738 82.2356 127.558C82.6011 132.308 80.5302 136.205 76.6321 139.006C75.3327 139.94 73.8303 140.59 72.1654 141.523C72.6121 142.376 72.9776 143.228 73.4648 144C75.7387 147.653 78.0126 151.266 80.2866 154.92C80.652 155.529 80.9769 156.179 81.4235 156.99C80.7332 157.072 80.3272 157.153 79.8805 157.193C78.7029 157.234 77.5254 157.193 76.2666 157.193C75.5357 156.219 74.8454 155.367 74.2769 154.433C72.0436 150.86 69.8103 147.288 67.577 143.675C67.171 142.985 66.6837 142.335 66.1964 141.686C62.7856 141.686 59.4559 141.686 55.8826 141.686C55.8014 142.579 55.6796 143.35 55.6796 144.122C55.639 147.532 55.6796 150.942 55.6796 154.352C55.6796 155.164 55.5984 155.935 55.5578 156.666C53.6899 157.356 53.2433 157.356 51.3348 156.828C50.8069 155.123 50.7257 139.859 51.2942 137.464C52.0657 137.423 52.959 137.301 53.8117 137.301C58.5626 137.301 63.3134 137.301 68.0237 137.301C71.2721 137.301 73.9115 136.043 75.9012 133.404C79.4338 128.654 76.6727 121.469 70.8255 120.292C69.7291 120.089 68.6328 120.008 67.4958 120.008C63.8007 119.967 60.065 120.008 56.3699 120.008C55.5578 119.926 54.7457 119.845 53.6899 119.764Z" fill="white"/>
<path d="M92.834 156.99C91.2909 156.99 89.9916 156.99 88.7734 156.99C88.2455 155.204 88.1237 118.749 88.5704 115.948C89.8698 115.217 91.2097 115.501 92.7934 115.745C92.8746 116.395 93.037 117.003 93.037 117.653C93.037 130.116 93.037 142.538 93.037 155.001C93.037 155.61 92.9558 156.179 92.834 156.99Z" fill="white"/>
<path d="M174.857 157.031C167.873 157.031 161.011 157.031 154.108 157.031C153.417 155.732 153.62 154.473 153.905 153.215C155.732 152.565 172.827 152.525 174.979 153.134C175.466 154.311 175.385 155.529 174.857 157.031Z" fill="white"/>
<path d="M91.6107 87.3853C93.4786 88.0348 98.7573 88.0754 100.747 87.4258C100.788 86.6545 100.909 85.802 100.909 84.9495C100.909 71.5122 100.909 58.075 100.909 44.6377C100.909 43.7852 100.991 42.9327 100.991 42.1207C102.737 41.6336 124.014 41.593 126.166 42.0395C126.45 44.1099 126.369 46.2209 126.207 48.4943C125.354 48.5755 124.623 48.6567 123.933 48.6567C119.547 48.6567 115.121 48.6567 110.736 48.6567C109.964 48.6567 109.152 48.8191 108.137 48.9003C108.056 64.1644 108.137 79.2661 108.097 94.2866C106.472 94.7737 87.9156 94.9361 84.4235 94.5301C84.3423 93.7588 84.2205 92.9063 84.2205 92.0538C84.2205 78.6165 84.2205 65.1793 84.2205 51.742C84.2205 50.8895 84.2205 49.9964 84.2205 48.9409C83.246 48.8191 82.4745 48.6567 81.703 48.6567C77.3176 48.6161 72.8916 48.6567 68.5062 48.6567C67.7753 48.6567 67.0444 48.5755 66.1917 48.5349C66.1917 46.3021 66.1917 44.2317 66.1917 41.999C66.6789 41.9178 67.1662 41.7554 67.6941 41.7554C75.0843 41.7554 82.4339 41.7554 89.8241 41.7554C90.2707 41.7554 90.7174 41.8772 91.3671 41.9584C91.4077 42.8515 91.4889 43.7446 91.4889 44.5971C91.4889 58.0344 91.4889 71.4716 91.4889 84.9089C91.4889 85.7614 91.5701 86.6139 91.6107 87.3853Z" fill="white"/>
<path d="M149.271 94.5301C149.23 93.6776 149.149 92.8657 149.149 92.0944C149.149 78.6571 149.149 65.2198 149.149 51.7826C149.149 50.8489 149.027 49.9557 148.986 48.8597C148.012 48.7785 147.24 48.6567 146.428 48.6567C142.165 48.6567 137.901 48.6567 133.638 48.6567C132.825 48.6567 132.054 48.5755 131.12 48.5349C130.755 46.2615 130.836 44.1505 131.039 42.1207C132.744 41.6336 153.94 41.5524 156.255 41.9989C156.295 42.8109 156.377 43.6228 156.377 44.4753C156.377 57.9126 156.377 71.3498 156.377 84.7871C156.377 85.6396 156.377 86.4921 156.377 87.5476C159.544 88.1566 162.427 87.8318 165.594 87.7912C165.675 86.6545 165.797 85.7208 165.797 84.8277C165.797 71.4716 165.797 58.1155 165.797 44.7189C165.797 43.8663 165.797 42.9732 165.797 41.9989C168.071 41.5118 170.142 41.796 172.213 41.7554C174.324 41.7148 176.395 41.7554 178.507 41.7554C180.618 41.7554 182.689 41.7554 184.801 41.7554C186.871 41.7554 188.942 41.796 191.135 41.796C191.135 44.1099 191.135 46.1803 191.135 48.4537C190.404 48.5349 189.714 48.6567 189.024 48.6567C184.638 48.6567 180.253 48.6567 175.827 48.6973C174.974 48.6973 174.121 48.8597 173.066 48.9408C173.066 64.2049 173.066 79.3066 173.066 94.3271C171.401 94.8143 152.682 94.9767 149.271 94.5301Z" fill="white"/>
<path d="M43.29 94.4492C40.9755 94.8958 21.3224 94.8552 19.4545 94.4086C19.4139 90.7144 19.4545 86.9389 19.4139 83.2041C19.4139 79.4287 19.4139 75.6533 19.4139 71.8778C19.4139 68.1024 19.4139 64.327 19.4139 60.5516C19.4139 56.7761 19.4139 53.0007 19.4139 49.0223C18.3582 48.9005 17.5461 48.7381 16.6934 48.7381C12.3486 48.6975 8.04438 48.7381 3.69959 48.7381C2.96869 48.7381 2.23779 48.7381 1.30386 48.7381C0.97902 46.4242 1.18205 44.2726 1.18205 42.0398C3.41535 41.5932 5.48624 41.8774 7.55712 41.8368C9.66861 41.7962 11.7395 41.8368 13.851 41.8368C15.8813 41.8368 17.9115 41.8368 19.9418 41.8368C22.0127 41.8368 24.1242 41.8368 26.4387 41.8368C26.5199 42.8517 26.6417 43.7042 26.6417 44.5568C26.6417 57.9128 26.6417 71.3095 26.6417 84.6656C26.6417 85.2745 26.6011 85.8835 26.6823 86.4924C26.7229 86.8984 26.8447 87.2637 26.9666 87.7915C29.9308 88.1162 32.8544 88.1162 36.0216 87.7915C36.0622 80.0376 36.0216 72.4056 36.0216 64.8141C36.0216 57.2633 36.0216 49.7124 36.0216 42.2834C37.8082 41.7962 59.0449 41.715 61.3189 42.1616C61.7249 44.232 61.4813 46.3024 61.4407 48.6163C60.4661 48.6975 59.6946 48.8193 58.8825 48.8193C54.6189 48.8193 50.3554 48.8193 46.0918 48.8193C45.2797 48.8193 44.5082 48.9005 43.4524 48.9411C43.3712 49.956 43.2494 50.8897 43.2494 51.7828C43.2494 65.2201 43.2494 78.6574 43.2494 92.0946C43.29 92.7848 43.29 93.5967 43.29 94.4492Z" fill="white"/>
<path d="M115.446 18.981C115.446 27.6685 109.477 34.9758 100.585 37.0462C91.9356 39.076 82.84 35.0164 78.9012 27.1002C75.0843 19.4275 76.871 10.6994 83.4897 5.09717C91.3671 -1.60117 103.183 -0.992232 110.33 6.39624C113.7 9.88749 115.446 14.1095 115.446 18.981ZM96.0774 30.5102C102.655 30.5914 107.894 25.5575 108.056 19.0622C108.218 12.8916 102.899 7.61412 96.4022 7.45173C90.0678 7.28935 84.5454 12.4856 84.4236 18.7374C84.2612 25.0704 89.5399 30.4291 96.0774 30.5102Z" fill="white"/>
<path d="M141.88 18.9809C141.677 10.5369 147.89 2.94547 156.336 1.03746C163.198 -0.505186 169.411 0.956269 174.527 5.86838C182.851 13.7846 181.917 27.0189 172.618 33.7984C163.279 40.6185 150.245 38.0204 144.276 28.0744C142.57 25.2733 141.88 22.188 141.88 18.9809ZM172.822 19.0621C173.146 12.8915 167.705 7.41103 161.046 7.49222C153.94 7.57341 149.148 12.7291 149.148 19.0215C149.189 25.801 154.59 30.3478 160.883 30.5101C167.421 30.6319 173.065 25.2327 172.822 19.0621Z" fill="white"/>
<path d="M29.2809 0.46875C39.4323 0.46875 46.4165 5.0561 49.2994 12.3634C52.223 19.833 50.071 28.2364 43.6147 33.3515C35.859 39.4815 24.6925 38.9943 17.6677 32.0118C9.46541 23.8926 10.7242 11.3891 19.1701 4.69073C22.7434 1.84901 26.804 0.509346 29.2809 0.46875ZM31.1894 30.4692C37.199 30.5098 43.168 26.4096 43.2492 18.9399C43.3304 12.8505 38.4984 7.61364 31.5142 7.49185C25.0579 7.37007 19.8198 12.404 19.5762 18.4934C19.2513 25.1511 24.9361 30.5098 31.1894 30.4692Z" fill="white"/>
<path d="M9.63351 199.633C7.96868 199.633 6.5881 199.267 5.45114 198.577C4.35479 197.847 3.50207 196.872 2.9336 195.614C2.36512 194.355 2.04027 192.894 1.91846 191.229L5.49174 190.255C5.57296 191.27 5.73538 192.285 5.97901 193.219C6.22264 194.152 6.6287 194.964 7.19718 195.573C7.76566 196.182 8.57777 196.466 9.59291 196.466C10.6486 196.466 11.4202 196.182 11.9886 195.573C12.5165 195.005 12.8007 194.152 12.8007 193.056C12.8007 191.757 12.5165 190.702 11.9074 189.89C11.2983 189.078 10.5674 188.307 9.67412 187.495L4.80145 183.191C3.86752 182.339 3.13662 181.446 2.68996 180.472C2.2433 179.497 1.99967 178.279 1.99967 176.818C1.99967 174.707 2.60875 173.042 3.82692 171.906C5.04508 170.728 6.70991 170.16 8.78079 170.16C9.91775 170.16 10.9329 170.323 11.7856 170.607C12.6383 170.891 13.3692 171.378 13.9783 171.987C14.5468 172.596 15.034 173.367 15.3589 174.342C15.6837 175.275 15.9274 176.371 16.0492 177.63L12.6383 178.564C12.5571 177.63 12.4353 176.737 12.1917 175.925C11.9886 175.113 11.5826 174.504 11.0547 173.976C10.5268 173.489 9.75533 173.245 8.74019 173.245C7.72505 173.245 6.95354 173.53 6.38507 174.057C5.81659 174.585 5.53235 175.397 5.53235 176.453C5.53235 177.346 5.69477 178.076 5.97901 178.645C6.26325 179.213 6.75052 179.781 7.44081 180.39L12.3541 184.694C13.4504 185.627 14.425 186.764 15.2371 188.104C16.0898 189.443 16.4958 190.986 16.4958 192.813C16.4958 194.234 16.2116 195.492 15.6025 196.507C14.9934 197.562 14.1813 198.334 13.1662 198.902C12.1511 199.349 10.9735 199.633 9.63351 199.633Z" fill="white"/>
<path d="M27.1753 199.634C25.0638 199.634 23.4802 199.228 22.3432 198.375C21.2062 197.523 20.4753 196.386 20.0693 194.843C19.6632 193.341 19.4602 191.555 19.4602 189.525V170.323H23.3177V189.688C23.3177 190.946 23.3989 192.042 23.5614 193.098C23.7238 194.112 24.0892 194.924 24.6577 195.533C25.2262 196.142 26.0383 196.426 27.1753 196.426C28.3122 196.426 29.1649 196.142 29.6928 195.533C30.2207 194.924 30.5861 194.112 30.7485 193.098C30.911 192.083 30.9922 190.946 30.9922 189.688V170.323H34.8091V189.525C34.8091 191.555 34.6061 193.301 34.2 194.843C33.794 196.345 33.0225 197.523 31.9261 198.375C30.8704 199.228 29.2461 199.634 27.1753 199.634Z" fill="white"/>
<path d="M39.0322 199.308L39.5601 170.363H43.5394L48.6557 193.828L53.8126 170.363H57.7514L58.2793 199.308H55.0308L54.706 178.32L49.7927 199.308H47.5188L42.6461 178.32L42.3213 199.308H39.0322Z" fill="white"/>
<path d="M62.6238 199.308L63.1517 170.363H67.131L72.2473 193.828L77.4042 170.363H81.3429L81.8708 199.308H78.6224L78.2975 178.32L73.3842 199.308H71.1103L66.2377 178.32L65.9128 199.308H62.6238Z" fill="white"/>
<path d="M86.4592 199.308V170.363H90.4386V199.308H86.4592Z" fill="white"/>
<path d="M98.3161 199.308V173.367H93.4028V170.363H107.087V173.367H102.336V199.308H98.3161Z" fill="white"/>
<path d="M117.279 199.308V195.086L124.222 184.45C124.75 183.679 125.238 182.908 125.725 182.177C126.171 181.446 126.578 180.675 126.862 179.944C127.146 179.173 127.308 178.401 127.308 177.549C127.308 176.696 127.146 176.088 126.821 175.682C126.496 175.276 126.05 175.073 125.481 175.073C124.832 175.073 124.344 175.235 123.979 175.6C123.613 175.966 123.37 176.453 123.248 177.021C123.126 177.63 123.045 178.28 123.045 179.01V180.431H117.238V178.889C117.238 177.184 117.523 175.641 118.05 174.301C118.578 172.962 119.472 171.906 120.649 171.135C121.827 170.363 123.41 169.958 125.319 169.958C127.918 169.958 129.867 170.648 131.207 171.987C132.547 173.327 133.196 175.194 133.196 177.63C133.196 178.807 132.993 179.863 132.628 180.878C132.262 181.893 131.775 182.867 131.166 183.801C130.557 184.734 129.907 185.709 129.217 186.764L123.938 194.64H132.425V199.308H117.279Z" fill="white"/>
<path d="M143.997 199.836C142.251 199.836 140.789 199.471 139.652 198.781C138.475 198.091 137.622 197.116 137.013 195.858C136.404 194.599 136.12 193.178 136.12 191.555V178.442C136.12 176.737 136.404 175.276 136.972 173.977C137.541 172.718 138.394 171.703 139.571 171.013C140.749 170.282 142.21 169.958 144.038 169.958C145.865 169.958 147.327 170.323 148.504 171.013C149.641 171.744 150.535 172.718 151.062 173.977C151.631 175.235 151.915 176.737 151.915 178.442V191.555C151.915 193.178 151.631 194.599 151.022 195.858C150.413 197.116 149.56 198.091 148.383 198.781C147.164 199.511 145.743 199.836 143.997 199.836ZM143.997 194.518C144.566 194.518 144.972 194.315 145.215 193.95C145.459 193.584 145.621 193.138 145.662 192.651C145.703 192.164 145.743 191.758 145.743 191.392V178.564C145.743 178.158 145.703 177.711 145.662 177.184C145.621 176.656 145.459 176.209 145.215 175.844C144.972 175.438 144.525 175.235 143.957 175.235C143.388 175.235 142.941 175.438 142.698 175.844C142.454 176.25 142.292 176.696 142.251 177.184C142.21 177.711 142.17 178.158 142.17 178.564V191.392C142.17 191.758 142.21 192.164 142.292 192.651C142.373 193.138 142.535 193.584 142.779 193.95C143.063 194.356 143.469 194.518 143.997 194.518Z" fill="white"/>
<path d="M155.286 199.308V195.086L162.229 184.45C162.757 183.679 163.244 182.908 163.732 182.177C164.178 181.446 164.584 180.675 164.869 179.944C165.153 179.173 165.315 178.401 165.315 177.549C165.315 176.696 165.153 176.088 164.828 175.682C164.503 175.276 164.057 175.073 163.488 175.073C162.838 175.073 162.351 175.235 161.986 175.6C161.62 175.966 161.377 176.453 161.255 177.021C161.133 177.63 161.052 178.28 161.052 179.01V180.431H155.245V178.889C155.245 177.184 155.529 175.641 156.057 174.301C156.585 172.962 157.478 171.906 158.656 171.135C159.834 170.363 161.417 169.958 163.326 169.958C165.924 169.958 167.873 170.648 169.213 171.987C170.553 173.327 171.203 175.194 171.203 177.63C171.203 178.807 171 179.863 170.635 180.878C170.269 181.893 169.782 182.867 169.173 183.801C168.564 184.734 167.914 185.709 167.224 186.764L161.945 194.64H170.432V199.308H155.286Z" fill="white"/>
<path d="M173.68 199.308V195.086L180.623 184.45C181.151 183.679 181.638 182.908 182.126 182.177C182.572 181.446 182.978 180.675 183.263 179.944C183.547 179.173 183.709 178.401 183.709 177.549C183.709 176.696 183.547 176.088 183.222 175.682C182.897 175.276 182.451 175.073 181.882 175.073C181.232 175.073 180.745 175.235 180.38 175.6C180.014 175.966 179.771 176.453 179.649 177.021C179.527 177.63 179.446 178.28 179.446 179.01V180.431H173.639V178.889C173.639 177.184 173.923 175.641 174.451 174.301C174.979 172.962 175.872 171.906 177.05 171.135C178.228 170.363 179.811 169.958 181.72 169.958C184.318 169.958 186.268 170.648 187.607 171.987C188.947 173.327 189.597 175.194 189.597 177.63C189.597 178.807 189.394 179.863 189.029 180.878C188.663 181.893 188.176 182.867 187.567 183.801C186.958 184.734 186.308 185.709 185.618 186.764L180.339 194.64H188.826V199.308H173.68Z" fill="white"/>
</svg>
