<svg width="138" height="24" viewBox="0 0 138 24" fill="none" xmlns="http://www.w3.org/2000/svg">
<path d="M5.87584 22.8515C4.61806 22.8515 3.57503 22.5755 2.71606 22.0541C1.88777 21.5021 1.24354 20.766 0.814056 19.8152C0.384571 18.8644 0.139152 17.7603 0.0471191 16.5028L2.74674 15.7667C2.80809 16.5335 2.9308 17.3002 3.11487 18.0056C3.29893 18.7111 3.6057 19.3245 4.03519 19.7845C4.46467 20.2446 5.07822 20.4593 5.84516 20.4593C6.64277 20.4593 7.22565 20.2446 7.65513 19.7845C8.05394 19.3551 8.26868 18.7111 8.26868 17.883C8.26868 16.9015 8.05394 16.1041 7.59377 15.4907C7.13361 14.8773 6.58142 14.2945 5.90651 13.6811L2.22522 10.4301C1.51964 9.78603 0.967443 9.11128 0.629991 8.3752C0.292539 7.63911 0.108474 6.719 0.108474 5.61488C0.108474 4.02002 0.568636 2.76254 1.48896 1.90378C2.40928 1.01434 3.66706 0.584961 5.23161 0.584961C6.09058 0.584961 6.85752 0.707644 7.50174 0.922335C8.14597 1.13703 8.69816 1.50507 9.15833 1.96512C9.58781 2.42517 9.95594 3.00791 10.2014 3.74399C10.4468 4.44941 10.6308 5.2775 10.7229 6.22828L8.14597 6.93369C8.08461 6.22828 7.99258 5.55353 7.80852 4.94013C7.65513 4.32672 7.34835 3.86667 6.94955 3.46796C6.55074 3.09992 5.96787 2.9159 5.20093 2.9159C4.434 2.9159 3.85112 3.13059 3.42164 3.5293C2.99216 3.92802 2.77741 4.54142 2.77741 5.33885C2.77741 6.01359 2.90012 6.56565 3.11487 6.99504C3.32961 7.42442 3.69774 7.8538 4.21925 8.31385L7.93123 11.5649C8.75952 12.2703 9.49578 13.1291 10.1093 14.1412C10.7536 15.1533 11.0603 16.3188 11.0603 17.6989C11.0603 18.7724 10.8456 19.7232 10.3854 20.4899C9.92526 21.2874 9.31171 21.8701 8.54478 22.2995C7.77784 22.6369 6.88819 22.8515 5.87584 22.8515Z" fill="black"/>
<path d="M19.1285 22.8519C17.5333 22.8519 16.3369 22.5452 15.4779 21.9011C14.6189 21.2571 14.0667 20.3983 13.76 19.2328C13.4532 18.098 13.2998 16.7485 13.2998 15.215V0.708008H16.2142V15.3377C16.2142 16.2885 16.2755 17.1166 16.3982 17.914C16.5209 18.6808 16.797 19.2942 17.2265 19.7542C17.656 20.2143 18.2696 20.429 19.1285 20.429C19.9875 20.429 20.6317 20.2143 21.0305 19.7542C21.4293 19.2942 21.7054 18.6808 21.8281 17.914C21.9508 17.1472 22.0122 16.2885 22.0122 15.3377V0.708008H24.8959V15.215C24.8959 16.7485 24.7425 18.0673 24.4357 19.2328C24.1289 20.3676 23.5461 21.2571 22.7178 21.9011C21.9202 22.5452 20.6931 22.8519 19.1285 22.8519Z" fill="black"/>
<path d="M28.0863 22.6061L28.4851 0.738281H31.4915L35.3569 18.4657L39.2529 0.738281H42.2286L42.6274 22.6061H40.1732L39.9278 6.74965L36.2158 22.6061H34.4979L30.8166 6.74965L30.5712 22.6061H28.0863Z" fill="black"/>
<path d="M45.9099 22.6061L46.3087 0.738281H49.3151L53.1805 18.4657L57.0765 0.738281H60.0522L60.451 22.6061H57.9968L57.7514 6.74965L54.0394 22.6061H52.3215L48.6402 6.74965L48.3948 22.6061H45.9099Z" fill="black"/>
<path d="M63.9176 22.6061V0.738281H66.924V22.6061H63.9176Z" fill="black"/>
<path d="M72.8754 22.6061V3.00788H69.1635V0.738281H79.5018V3.00788H75.9125V22.6061H72.8754Z" fill="black"/>
<path d="M83.2018 22.6062V19.4165L88.4477 11.3809C88.8465 10.7982 89.2146 10.2154 89.5827 9.66338C89.9202 9.11132 90.227 8.52858 90.4417 7.97652C90.6564 7.39378 90.7792 6.81104 90.7792 6.16697C90.7792 5.52289 90.6564 5.06285 90.411 4.75614C90.1656 4.44944 89.8282 4.29609 89.3987 4.29609C88.9078 4.29609 88.5397 4.41877 88.2636 4.6948C87.9875 4.97083 87.8034 5.33887 87.7114 5.76826C87.6194 6.22831 87.558 6.71903 87.558 7.2711V8.34455H83.1711V7.17909C83.1711 5.89094 83.3859 4.72547 83.7847 3.71335C84.1835 2.70123 84.8584 1.90381 85.748 1.32108C86.6377 0.738341 87.8341 0.431641 89.276 0.431641C91.2393 0.431641 92.7118 0.953034 93.7242 1.96515C94.7365 2.97727 95.2274 4.3881 95.2274 6.22831C95.2274 7.11775 95.074 7.91517 94.7979 8.68193C94.5218 9.44868 94.1537 10.1848 93.6935 10.8902C93.2334 11.5956 92.7425 12.3317 92.221 13.1291L88.2329 19.0791H94.6445V22.6062H83.2018Z" fill="black"/>
<path d="M103.388 23.0049C102.068 23.0049 100.964 22.7289 100.105 22.2075C99.2155 21.6861 98.5712 20.95 98.1111 19.9992C97.6509 19.0485 97.4362 17.975 97.4362 16.7482V6.84172C97.4362 5.55357 97.6509 4.44944 98.0804 3.46799C98.5099 2.51721 99.1541 1.75046 100.044 1.22907C100.933 0.677004 102.038 0.431641 103.418 0.431641C104.799 0.431641 105.903 0.707675 106.793 1.22907C107.652 1.78113 108.327 2.51721 108.725 3.46799C109.155 4.41877 109.37 5.55357 109.37 6.84172V16.7482C109.37 17.975 109.155 19.0485 108.695 19.9992C108.235 20.95 107.59 21.6861 106.701 22.2075C105.78 22.7596 104.707 23.0049 103.388 23.0049ZM103.388 18.9871C103.817 18.9871 104.124 18.8338 104.308 18.5577C104.492 18.2817 104.615 17.9443 104.645 17.5763C104.676 17.2083 104.707 16.9015 104.707 16.6255V6.93372C104.707 6.62702 104.676 6.28965 104.645 5.89094C104.615 5.49222 104.492 5.15486 104.308 4.87882C104.124 4.57212 103.786 4.41877 103.357 4.41877C102.927 4.41877 102.59 4.57212 102.406 4.87882C102.222 5.18553 102.099 5.52289 102.068 5.89094C102.038 6.28965 102.007 6.62702 102.007 6.93372V16.6255C102.007 16.9015 102.038 17.2083 102.099 17.5763C102.16 17.9443 102.283 18.2817 102.467 18.5577C102.682 18.8644 102.989 18.9871 103.388 18.9871Z" fill="black"/>
<path d="M111.916 22.6062V19.4165L117.162 11.3809C117.561 10.7982 117.929 10.2154 118.297 9.66338C118.634 9.11132 118.941 8.52858 119.156 7.97652C119.371 7.39378 119.493 6.81104 119.493 6.16697C119.493 5.52289 119.371 5.06285 119.125 4.75614C118.88 4.44944 118.542 4.29609 118.113 4.29609C117.622 4.29609 117.254 4.41877 116.978 4.6948C116.702 4.97083 116.518 5.33887 116.426 5.76826C116.333 6.22831 116.272 6.71903 116.272 7.2711V8.34455H111.885V7.17909C111.885 5.89094 112.1 4.72547 112.499 3.71335C112.898 2.70123 113.573 1.90381 114.462 1.32108C115.352 0.738341 116.548 0.431641 117.99 0.431641C119.953 0.431641 121.426 0.953034 122.438 1.96515C123.451 2.97727 123.941 4.3881 123.941 6.22831C123.941 7.11775 123.788 7.91517 123.512 8.68193C123.236 9.44868 122.868 10.1848 122.408 10.8902C121.947 11.5956 121.457 12.3317 120.935 13.1291L116.947 19.0791H123.359V22.6062H111.916Z" fill="black"/>
<path d="M125.813 22.6062V19.4165L131.059 11.3809C131.457 10.7982 131.826 10.2154 132.194 9.66338C132.531 9.11132 132.838 8.52858 133.053 7.97652C133.267 7.39378 133.39 6.81104 133.39 6.16697C133.39 5.52289 133.267 5.06285 133.022 4.75614C132.777 4.44944 132.439 4.29609 132.01 4.29609C131.519 4.29609 131.151 4.41877 130.875 4.6948C130.598 4.97083 130.414 5.33887 130.322 5.76826C130.23 6.22831 130.169 6.71903 130.169 7.2711V8.34455H125.782V7.17909C125.782 5.89094 125.997 4.72547 126.396 3.71335C126.794 2.70123 127.469 1.90381 128.359 1.32108C129.249 0.738341 130.445 0.431641 131.887 0.431641C133.85 0.431641 135.323 0.953034 136.335 1.96515C137.348 2.97727 137.838 4.3881 137.838 6.22831C137.838 7.11775 137.685 7.91517 137.409 8.68193C137.133 9.44868 136.765 10.1848 136.304 10.8902C135.844 11.5956 135.353 12.3317 134.832 13.1291L130.844 19.0791H137.255V22.6062H125.813Z" fill="black"/>
</svg>
