<svg width="363" height="58" viewBox="0 0 363 58" fill="none" xmlns="http://www.w3.org/2000/svg">
<path d="M15.0714 57.6081C11.8571 57.6081 9.19155 56.9027 6.9964 55.5702C4.87966 54.1594 3.2333 52.2783 2.13573 49.8485C1.03816 47.4187 0.410975 44.5971 0.175781 41.3835L7.0748 39.5024C7.2316 41.4619 7.54519 43.4214 8.01558 45.2241C8.48596 47.0269 9.26994 48.5945 10.3675 49.7701C11.4651 50.9458 13.033 51.4945 14.993 51.4945C17.0313 51.4945 18.5209 50.9458 19.6185 49.7701C20.6376 48.6728 21.1864 47.0269 21.1864 44.9106C21.1864 42.4025 20.6376 40.3646 19.4617 38.797C18.2857 37.2294 16.8745 35.7402 15.1498 34.1726L5.74204 25.8644C3.93888 24.2184 2.52772 22.4941 1.66534 20.613C0.802965 18.7319 0.332577 16.3805 0.332577 13.5588C0.332577 9.48309 1.50855 6.26952 3.86049 4.0749C6.21242 1.80189 9.42674 0.70459 13.425 0.70459C15.6202 0.70459 17.5801 1.01811 19.2265 1.56677C20.8728 2.11543 22.284 3.05597 23.46 4.23167C24.5575 5.40736 25.4983 6.89656 26.1255 8.77767C26.7527 10.5804 27.2231 12.6966 27.4583 15.1264L20.8728 16.9291C20.716 15.1264 20.4809 13.4021 20.0105 11.8345C19.6185 10.2669 18.8345 9.09119 17.8153 8.07226C16.7961 7.1317 15.3066 6.66143 13.3466 6.66143C11.3867 6.66143 9.89713 7.21009 8.79956 8.22902C7.70198 9.24796 7.1532 10.8155 7.1532 12.8534C7.1532 14.5778 7.46679 15.9886 8.01558 17.0859C8.56436 18.1832 9.50514 19.2805 10.8379 20.4562L20.3241 28.7644C22.4408 30.5672 24.3223 32.7618 25.8903 35.3483C27.5367 37.9348 28.3206 40.9132 28.3206 44.4403C28.3206 47.1836 27.7719 49.6134 26.5959 51.5729C25.4199 53.6107 23.852 55.0999 21.892 56.1973C19.9321 57.0594 17.6585 57.6081 15.0714 57.6081Z" fill="white"/>
<path d="M48.9393 57.608C44.8626 57.608 41.8051 56.8242 39.61 55.1783C37.4148 53.5323 36.0036 51.3377 35.2197 48.3592C34.4357 45.4592 34.0437 42.0105 34.0437 38.0915V1.01807H41.4915V38.4051C41.4915 40.8348 41.6483 42.9511 41.9619 44.9889C42.2755 46.9484 42.9811 48.516 44.0786 49.6917C45.1762 50.8674 46.7442 51.416 48.9393 51.416C51.1345 51.416 52.7808 50.8674 53.8 49.6917C54.8192 48.516 55.5247 46.9484 55.8383 44.9889C56.1519 43.0294 56.3087 40.8348 56.3087 38.4051V1.01807H63.6781V38.0915C63.6781 42.0105 63.2861 45.3808 62.5022 48.3592C61.7182 51.2593 60.2286 53.5323 58.1119 55.1783C56.0735 56.8242 52.9376 57.608 48.9393 57.608Z" fill="white"/>
<path d="M71.8315 56.981L72.8507 1.09644H80.5337L90.4119 46.3998L100.368 1.09644H107.973L108.992 56.981H102.72L102.093 16.4588L92.607 56.981H88.2167L78.809 16.4588L78.1818 56.981H71.8315Z" fill="white"/>
<path d="M117.381 56.981L118.4 1.09644H126.083L135.961 46.3998L145.918 1.09644H153.522L154.541 56.981H148.27L147.642 16.4588L138.156 56.981H133.766L124.358 16.4588L123.731 56.981H117.381Z" fill="white"/>
<path d="M163.4 56.981V1.09644H171.083V56.981H163.4Z" fill="white"/>
<path d="M186.293 56.981V6.89651H176.806V1.09644H203.227V6.89651H194.054V56.981H186.293Z" fill="white"/>
<path d="M222.904 56.9811V48.8296L236.31 28.2942C237.33 26.805 238.27 25.3158 239.211 23.905C240.073 22.4941 240.857 21.0049 241.406 19.5941C241.955 18.1049 242.269 16.6157 242.269 14.9697C242.269 13.3237 241.955 12.148 241.328 11.3643C240.701 10.5805 239.838 10.1886 238.741 10.1886C237.486 10.1886 236.546 10.5021 235.84 11.2075C235.134 11.9129 234.664 12.8535 234.429 13.9508C234.194 15.1265 234.037 16.3805 234.037 17.7914V20.5346H222.826V17.5562C222.826 14.2643 223.375 11.2859 224.394 8.69933C225.413 6.11281 227.138 4.07495 229.411 2.58574C231.685 1.09653 234.742 0.312744 238.427 0.312744C243.445 0.312744 247.208 1.64519 249.795 4.23172C252.382 6.81824 253.636 10.4237 253.636 15.1265C253.636 17.3995 253.244 19.4373 252.539 21.3968C251.833 23.3563 250.892 25.2374 249.716 27.0401C248.54 28.8429 247.286 30.724 245.953 32.7618L235.762 47.9674H252.147V56.9811H222.904Z" fill="white"/>
<path d="M274.49 58C271.119 58 268.297 57.2946 266.102 55.9622C263.828 54.6297 262.182 52.7486 261.006 50.3188C259.83 47.8891 259.281 45.1458 259.281 42.0106V16.694C259.281 13.4021 259.83 10.5804 260.927 8.07231C262.025 5.64254 263.671 3.68307 265.945 2.35061C268.218 0.939785 271.041 0.312744 274.569 0.312744C278.097 0.312744 280.919 1.01816 283.192 2.35061C285.388 3.76145 287.112 5.64254 288.131 8.07231C289.229 10.5021 289.778 13.4021 289.778 16.694V42.0106C289.778 45.1458 289.229 47.8891 288.053 50.3188C286.877 52.7486 285.231 54.6297 282.957 55.9622C280.605 57.373 277.861 58 274.49 58ZM274.49 47.7323C275.588 47.7323 276.372 47.3404 276.842 46.635C277.313 45.9296 277.626 45.0674 277.705 44.1269C277.783 43.1863 277.861 42.4025 277.861 41.6971V16.9292C277.861 16.1454 277.783 15.2832 277.705 14.2643C277.626 13.2453 277.313 12.3832 276.842 11.6778C276.372 10.894 275.509 10.5021 274.412 10.5021C273.314 10.5021 272.452 10.894 271.981 11.6778C271.511 12.4616 271.197 13.3237 271.119 14.2643C271.041 15.2832 270.962 16.1454 270.962 16.9292V41.6971C270.962 42.4025 271.041 43.1863 271.198 44.1269C271.354 45.0674 271.668 45.9296 272.138 46.635C272.687 47.4188 273.471 47.7323 274.49 47.7323Z" fill="white"/>
<path d="M296.285 56.9811V48.8296L309.691 28.2942C310.71 26.805 311.651 25.3158 312.592 23.905C313.454 22.4941 314.238 21.0049 314.787 19.5941C315.336 18.1049 315.649 16.6157 315.649 14.9697C315.649 13.3237 315.336 12.148 314.708 11.3643C314.081 10.5805 313.219 10.1886 312.121 10.1886C310.867 10.1886 309.926 10.5021 309.22 11.2075C308.515 11.9129 308.045 12.8535 307.809 13.9508C307.574 15.1265 307.417 16.3805 307.417 17.7914V20.5346H296.206V17.5562C296.206 14.2643 296.755 11.2859 297.774 8.69933C298.794 6.11281 300.518 4.07495 302.792 2.58574C305.065 1.09653 308.123 0.312744 311.808 0.312744C316.825 0.312744 320.588 1.64519 323.175 4.23172C325.762 6.81824 327.017 10.4237 327.017 15.1265C327.017 17.3995 326.625 19.4373 325.919 21.3968C325.214 23.3563 324.273 25.2374 323.097 27.0401C321.921 28.8429 320.667 30.724 319.334 32.7618L309.142 47.9674H325.527V56.9811H296.285Z" fill="white"/>
<path d="M331.799 56.9811V48.8296L345.205 28.2942C346.224 26.805 347.165 25.3158 348.106 23.905C348.968 22.4941 349.752 21.0049 350.301 19.5941C350.85 18.1049 351.163 16.6157 351.163 14.9697C351.163 13.3237 350.85 12.148 350.223 11.3643C349.595 10.5805 348.733 10.1886 347.636 10.1886C346.381 10.1886 345.44 10.5021 344.735 11.2075C344.029 11.9129 343.559 12.8535 343.324 13.9508C343.088 15.1265 342.932 16.3805 342.932 17.7914V20.5346H331.721V17.5562C331.721 14.2643 332.269 11.2859 333.289 8.69933C334.308 6.11281 336.033 4.07495 338.306 2.58574C340.58 1.09653 343.637 0.312744 347.322 0.312744C352.339 0.312744 356.102 1.64519 358.69 4.23172C361.277 6.81824 362.531 10.4237 362.531 15.1265C362.531 17.3995 362.139 19.4373 361.434 21.3968C360.728 23.3563 359.787 25.2374 358.611 27.0401C357.435 28.8429 356.181 30.724 354.848 32.7618L344.656 47.9674H361.042V56.9811H331.799Z" fill="white"/>
</svg>
