<svg width="133" height="150" viewBox="0 0 133 150" fill="none" xmlns="http://www.w3.org/2000/svg">
<path d="M114.613 120.853C114.902 116.668 115.19 113.926 115.19 111.184C115.335 95.8863 115.19 80.5886 115.335 65.4353C115.479 46.8184 115.912 28.0571 116.201 9.44019C116.201 7.41975 116.634 5.39929 117.067 2.65726C121.831 2.65726 126.161 2.65726 131.358 2.65726C131.646 5.11065 132.08 7.70838 132.08 10.1618C131.935 47.8286 131.935 85.3511 131.646 123.018C131.646 131.677 130.78 140.192 130.203 149.428C124.862 149.428 120.243 149.428 114.469 149.428C98.59 129.945 83.1444 109.019 67.2658 88.5261C51.5315 68.1773 36.5189 47.3956 19.6298 26.7583C16.7428 34.1184 18.1863 40.3241 17.8976 46.3854C17.6089 52.7354 17.8976 59.0854 17.8976 65.291C17.8976 71.3523 17.8976 77.4136 17.8976 83.475C17.8976 89.6806 17.8976 96.0306 17.8976 102.958C21.362 103.535 24.1047 104.257 26.8474 104.257C34.2093 104.401 41.5712 104.401 48.9331 104.401C51.8202 104.401 54.5629 104.69 57.1612 104.978C59.7595 109.885 58.6047 114.215 58.316 118.255C51.5315 120.709 10.3914 120.853 2.30768 118.688C0.286763 112.194 0.286763 9.29589 2.30768 2.51297C13.4227 -1.52791 20.0629 0.20387 26.9918 9.29586C50.521 40.0355 74.0503 70.775 97.5796 101.515C101.621 106.71 105.663 111.905 109.849 116.957C110.86 118.255 112.303 118.977 114.613 120.853Z" fill="white"/>
</svg>
